<?xml version="1.0" encoding="utf-8"?>
<!-- Generator: Adobe Illustrator 16.0.0, SVG Export Plug-In . SVG Version: 6.00 Build 0)  -->
<!DOCTYPE svg PUBLIC "-//W3C//DTD SVG 1.1//EN" "http://www.w3.org/Graphics/SVG/1.1/DTD/svg11.dtd">
<svg version="1.1" id="Layer_1" xmlns="http://www.w3.org/2000/svg" xmlns:xlink="http://www.w3.org/1999/xlink" x="0px" y="0px"
	 width="500px" height="500px" viewBox="0 0 500 500" enable-background="new 0 0 500 500" xml:space="preserve">
<g>
	
		<path fill="#063A4E" stroke="#231F20" stroke-width="9.1363" stroke-linecap="round" stroke-linejoin="round" stroke-miterlimit="10" d="
		M233.348,330.586l6.488,35.353h-75.91v-10.123c0,0,1.003-26.993,43.311-40.23L233.348,330.586z"/>
	
		<path fill="#556080" stroke="#231F20" stroke-width="9.1363" stroke-linecap="round" stroke-linejoin="round" stroke-miterlimit="10" d="
		M233.421,330.989l-26.185-15.404c0,0,15.767-9.425,19.052-12.511l10.381,8.513C236.669,311.587,233.06,327.374,233.421,330.989z"/>
	
		<path fill="#063A4E" stroke="#231F20" stroke-width="9.1363" stroke-linecap="round" stroke-linejoin="round" stroke-miterlimit="10" d="
		M266.649,330.586l-6.487,35.353h75.911v-10.123c0,0-1.004-26.993-43.311-40.23L266.649,330.586z"/>
	
		<path fill="#556080" stroke="#231F20" stroke-width="9.1363" stroke-linecap="round" stroke-linejoin="round" stroke-miterlimit="10" d="
		M266.576,330.989l26.187-15.404c0,0-15.769-9.425-19.051-12.511l-10.384,8.513C263.328,311.587,266.939,327.374,266.576,330.989z"
		/>
	
		<path fill="#032835" stroke="#231F20" stroke-width="9.1363" stroke-linecap="round" stroke-linejoin="round" stroke-miterlimit="10" d="
		M239.836,365.938h19.466l6.923-34.192l-5.4-20.763c0,0-12.597,4.291-22.147,0l-4.292,20.763L239.836,365.938z"/>
	
		<path fill="#FFF2CC" stroke="#231F20" stroke-width="9.1363" stroke-linecap="round" stroke-linejoin="round" stroke-miterlimit="10" d="
		M271.762,288.417c0,0-20.764,10.384-43.743,0v15.646c0,0,21.317,21.317,43.743,0V288.417z"/>
	
		<path fill="#FFF2CC" stroke="#231F20" stroke-width="9.1363" stroke-linecap="round" stroke-linejoin="round" stroke-miterlimit="10" d="
		M298.928,213.391c0,0,12.23,79.64-49.532,79.64c0,0-56.884,2.588-48.024-79.64C201.371,213.391,245.218,147.223,298.928,213.391z"
		/>
	
		<path fill="#FFF2CC" stroke="#231F20" stroke-width="9.1363" stroke-linecap="round" stroke-linejoin="round" stroke-miterlimit="10" d="
		M199.71,224.88c0,0-25.125,4.359-5.846,21.179c4.599,1.454,6.884,1.454,6.884,1.454L199.71,224.88z"/>
	
		<path fill="#FFF2CC" stroke="#231F20" stroke-width="9.1363" stroke-linecap="round" stroke-linejoin="round" stroke-miterlimit="10" d="
		M300.476,224.88c0,0,25.125,4.359,5.845,21.179c-4.599,1.454-6.883,1.454-6.883,1.454L300.476,224.88z"/>
	<rect x="210.972" y="227.372" fill="#231F20" width="30.411" height="16.058"/>
	<rect x="258.833" y="227.372" fill="#231F20" width="30.409" height="16.058"/>
	
		<path fill="none" stroke="#231F20" stroke-width="7.5911" stroke-linecap="round" stroke-linejoin="round" stroke-miterlimit="10" d="
		M199.797,237.071h8.435h2.741v-9.699h32.474v8.961h12.229v-8.961h33.527v12.44c0,0,0.845,5.271-5.271,5.271s-23.619,0-23.619,0
		s-4.437,0.063-4.437-6.399h-12.43c0,0,0.348,5.835-5.836,5.835c-6.184,0-23.685,0-23.685,0s-2.741-0.427-2.741-5.835"/>
	
		<line fill="none" stroke="#231F20" stroke-width="7.5911" stroke-linecap="round" stroke-linejoin="round" stroke-miterlimit="10" x1="289.242" y1="236.195" x2="298.65" y2="236.195"/>
	
		<path fill="#FFCB05" stroke="#231F20" stroke-width="7.5911" stroke-linecap="round" stroke-linejoin="round" stroke-miterlimit="10" d="
		M299.438,217.96v-33.979l-14.469-14.47v9.585h-6.925v-16.832l-17.035-17.038v33.49h-8.083V148.93l-14.604-14.605v44.772h-7.876
		v-18.738l-11.431-11.429v31.311h-8.043v-8.832l-10.313-6.577v53.129c0,0,31.692-6.519,45.79-3.45
		C260.546,217.58,293.37,217.579,299.438,217.96z"/>
</g>
<g>
	<path fill-rule="evenodd" clip-rule="evenodd" fill="#231F20" d="M257.68,13.291c0.026,3.712,0.299,7.443,0.012,11.13
		c-0.305,3.973,1.18,5.167,5.133,5.637c12.699,1.514,25.531,2.716,37.955,5.583c45.025,10.392,82.802,33.47,113.708,67.633
		c29.133,32.202,47.25,69.917,54.413,112.771c1.295,7.752,1.781,15.649,2.404,23.499c0.232,2.948,1.334,4.078,4.295,3.933
		c3.822-0.188,7.662-0.046,11.783-0.046c0,5.072,0,9.632,0,15.001c-3.666,0-7.333,0.287-10.938-0.073
		c-4.398-0.44-5.107,1.883-5.277,5.462c-1.191,25.096-6.556,49.354-16.876,72.202c-32.761,72.531-87.937,117.39-166.335,132.883
		c-8.449,1.669-17.139,2.214-25.743,2.983c-3.261,0.293-4.742,1.301-4.508,4.767c0.251,3.669,0.056,7.368,0.056,11.372
		c-5.017,0-9.578,0-15,0c0-3.262-0.301-6.618,0.074-9.897c0.529-4.628-1.201-6.165-5.818-6.359
		c-24.47-1.04-48.092-6.423-70.489-16.165c-64.357-27.992-107.453-75.457-128.629-142.494c-5.041-15.955-7.988-32.381-8.524-49.141
		c-0.141-4.412-1.72-6.011-6.094-5.611c-3.525,0.321-7.107,0.02-10.664-0.006c0-4.95,0-9.901,0-14.853
		c4.019-0.034,8.047-0.248,12.055-0.044c3.16,0.161,4.299-0.953,4.531-4.139c0.572-7.85,1.073-15.75,2.398-23.493
		c7.865-45.918,27.971-85.723,60.54-119.075c29.98-30.7,65.751-51.534,107.651-61.13c12.576-2.88,25.556-4.077,38.398-5.661
		c3.562-0.439,4.828-1.529,4.6-5.079c-0.248-3.846,0.004-7.725,0.037-11.589C247.779,13.291,252.729,13.291,257.68,13.291z
		 M257.75,408.98c89.636-2.518,151.176-80.261,150.12-150.637c-9.952,0-19.925,0-30.019,0c0-5.243,0-9.908,0-15.115
		c10.402,0,20.389,0,31.143,0c-0.893-7.18-1.48-13.763-2.553-20.266c-11.773-71.463-72.23-125.867-144.52-130.292
		c-3.466-0.212-4.278,0.853-4.216,4.01c0.153,7.732,0.185,15.473-0.046,23.201c-0.039,1.315-1.51,3.587-2.51,3.698
		c-3.916,0.433-7.908,0.177-12.408,0.177c0-9.627-0.056-18.563,0.033-27.499c0.025-2.681-0.578-4.049-3.683-3.602
		c-6.72,0.969-13.616,1.082-20.194,2.608c-67.263,15.603-108.778,57.157-124.327,124.422c-1.742,7.536-2.063,15.4-3.151,23.961
		c11.218,0,21.31,0,31.666,0c0,2.893,0.008,5.05-0.002,7.207c-0.039,8.548,1.042,7.552-7.701,7.569
		c-7.684,0.015-15.368,0.003-23.04,0.003c0.893,81.176,71.21,149.69,150.456,150.367c0-10.077,0-20.176,0-30.372
		c5.284,0,9.836,0,14.95,0C257.75,388.703,257.75,398.68,257.75,408.98z M60.143,243.432c4.022,0,8.053-0.167,12.063,0.051
		c3.452,0.188,4.265-1.297,4.709-4.551c1.458-10.683,2.586-21.513,5.3-31.906c18.506-70.872,82.346-124.99,156.595-129.528
		c2.997-0.183,4.028-1.332,3.986-4.253c-0.119-8.197-0.13-16.398,0.002-24.594c0.051-3.151-1.254-3.977-4.202-3.771
		c-21.387,1.49-42.433,5.041-62.262,13.27C95.762,91.587,52.214,152.29,44.223,238.906c-0.326,3.533,0.848,4.764,4.321,4.575
		C52.4,243.271,56.276,243.433,60.143,243.432z M60.361,258.437c-3.867,0-7.745,0.174-11.599-0.05
		c-3.686-0.215-5.021,1.133-4.525,4.84c0.981,7.344,1.391,14.777,2.627,22.071c8.115,47.902,30.096,88.319,66.512,120.514
		c35.651,31.517,77.676,47.938,125.037,51.123c3.268,0.22,4.432-0.671,4.367-3.992c-0.158-8.04-0.135-16.087,0.023-24.129
		c0.061-3.141-1.066-4.11-4.216-4.54c-10.683-1.458-21.518-2.552-31.917-5.248c-71.187-18.458-125.352-82.462-129.868-156.797
		c-0.165-2.712-1.125-3.912-3.913-3.827C68.717,258.527,64.538,258.434,60.361,258.437z M440.039,243.425c0-0.009,0-0.019,0-0.028
		c4.176,0,8.355-0.088,12.529,0.031c2.703,0.077,3.927-0.719,3.731-3.715c-1.835-28.214-7.984-55.404-21.048-80.553
		C398.844,89.075,340.656,51.612,262.256,44.876c-3.619-0.311-4.602,1.029-4.539,4.392c0.146,7.886,0.172,15.78-0.023,23.664
		c-0.088,3.5,1.338,4.428,4.622,4.599c16.633,0.864,32.922,4.087,48.214,10.517c67.286,28.289,105.787,78.353,113.127,151.502
		c0.305,3.034,1.451,4.013,4.318,3.91C431.992,243.317,436.018,243.425,440.039,243.425z M440.223,258.465c0-0.013,0-0.025,0-0.039
		c-3.867,0-7.743,0.177-11.596-0.053c-3.537-0.209-4.828,0.988-5.023,4.68c-0.881,16.779-4.205,33.174-10.73,48.622
		c-28.34,67.099-78.391,105.339-151.314,112.671c-2.686,0.271-3.868,1.126-3.832,3.916c0.105,8.35,0.105,16.703,0.034,25.055
		c-0.023,2.748,0.921,4.037,3.821,3.656c10.098-1.328,20.359-1.87,30.283-4.004c61.277-13.178,107.811-46.867,138.828-101.448
		c15.68-27.591,23.498-57.586,25.621-89.157c0.188-2.8-0.702-4.001-3.562-3.926C448.578,258.548,444.4,258.465,440.223,258.465z"/>
</g>
</svg>
